<svg width="20" height="16" viewBox="0 0 20 16" fill="none" xmlns="http://www.w3.org/2000/svg">
<g clip-path="url(#clip0_9_717)">
<path d="M6.50001 11C10.0906 11 13 8.5375 13 5.5C13 2.4625 10.0906 0 6.50001 0C2.90938 0 6.32051e-06 2.4625 6.32051e-06 5.5C6.32051e-06 6.70625 0.459381 7.82187 1.23751 8.73125C1.12813 9.025 0.965631 9.28438 0.793756 9.50313C0.643756 9.69688 0.490631 9.84688 0.378131 9.95C0.321881 10 0.275006 10.0406 0.243756 10.0656C0.228131 10.0781 0.215631 10.0875 0.209381 10.0906L0.203131 10.0969C0.0312563 10.225 -0.0437437 10.45 0.0250063 10.6531C0.0937563 10.8562 0.284381 11 0.500006 11C1.18126 11 1.86876 10.825 2.44063 10.6094C2.72813 10.5 2.99688 10.3781 3.23126 10.2531C4.19063 10.7281 5.30626 11 6.50001 11ZM14 5.5C14 9.00937 10.9031 11.6531 7.23438 11.9688C7.99376 14.2937 10.5125 16 13.5 16C14.6938 16 15.8094 15.7281 16.7719 15.2531C17.0063 15.3781 17.2719 15.5 17.5594 15.6094C18.1313 15.825 18.8188 16 19.5 16C19.7156 16 19.9094 15.8594 19.975 15.6531C20.0406 15.4469 19.9688 15.2219 19.7938 15.0938L19.7875 15.0875C19.7813 15.0812 19.7688 15.075 19.7531 15.0625C19.7219 15.0375 19.675 15 19.6188 14.9469C19.5063 14.8438 19.3531 14.6938 19.2031 14.5C19.0313 14.2812 18.8688 14.0187 18.7594 13.7281C19.5375 12.8219 19.9969 11.7063 19.9969 10.4969C19.9969 7.59687 17.3438 5.21875 13.9781 5.0125C13.9906 5.17188 13.9969 5.33437 13.9969 5.49687L14 5.5Z" fill="white"/>
</g>
<defs>
<clipPath id="clip0_9_717">
<path d="M0 0H20V16H0V0Z" fill="white"/>
</clipPath>
</defs>
</svg>
