<svg width="28" height="24" viewBox="0 0 28 24" fill="none" xmlns="http://www.w3.org/2000/svg">
<g clip-path="url(#clip0_9_715)">
<path d="M19.625 5.625C19.625 8.18438 16.1984 12.7453 14.6937 14.625C14.3328 15.075 13.6625 15.075 13.3063 14.625C11.8016 12.7453 8.375 8.18438 8.375 5.625C8.375 2.51719 10.8922 0 14 0C17.1078 0 19.625 2.51719 19.625 5.625ZM20 9.39375C20.1641 9.07031 20.3141 8.74688 20.45 8.42813C20.4734 8.37188 20.4969 8.31094 20.5203 8.25469L25.9578 6.07969C26.6984 5.78438 27.5 6.32813 27.5 7.125V19.8188C27.5 20.2781 27.2188 20.6906 26.7922 20.8641L20 23.5781V9.39375ZM6.95 6.48281C7.0625 7.14375 7.2875 7.80938 7.55 8.42813C7.68594 8.74688 7.83594 9.07031 8 9.39375V21.1781L2.04219 23.5641C1.30156 23.8594 0.5 23.3156 0.5 22.5188V9.825C0.5 9.36563 0.78125 8.95313 1.20781 8.77969L6.95469 6.48281H6.95ZM15.8656 15.5625C16.5172 14.7469 17.5391 13.4203 18.5 11.9531V23.6391L9.5 21.0656V11.9531C10.4609 13.4203 11.4828 14.7469 12.1344 15.5625C13.0953 16.7625 14.9047 16.7625 15.8656 15.5625ZM14 7.125C14.4973 7.125 14.9742 6.92746 15.3258 6.57583C15.6775 6.2242 15.875 5.74728 15.875 5.25C15.875 4.75272 15.6775 4.27581 15.3258 3.92418C14.9742 3.57254 14.4973 3.375 14 3.375C13.5027 3.375 13.0258 3.57254 12.6742 3.92418C12.3225 4.27581 12.125 4.75272 12.125 5.25C12.125 5.74728 12.3225 6.2242 12.6742 6.57583C13.0258 6.92746 13.5027 7.125 14 7.125Z" fill="white"/>
</g>
<defs>
<clipPath id="clip0_9_715">
<path d="M0.5 0H27.5V24H0.5V0Z" fill="white"/>
</clipPath>
</defs>
</svg>
