<svg width="17" height="16" viewBox="0 0 17 16" fill="none" xmlns="http://www.w3.org/2000/svg">
<path d="M5.87816 12.0281L4.91253 11.0625C4.64691 10.7968 4.55316 10.4125 4.67191 10.0562C4.76566 9.77809 4.89066 9.41559 5.04066 8.99997H1.73441C1.46566 8.99997 1.21566 8.85622 1.08128 8.62184C0.946905 8.38747 0.95003 8.09997 1.08753 7.86872L2.72816 5.10309C3.13441 4.41872 3.86878 3.99997 4.66253 3.99997H7.23441C7.30941 3.87497 7.38441 3.75934 7.45941 3.64684C10.0188 -0.128156 13.8313 -0.253156 16.1063 0.165594C16.4688 0.231219 16.75 0.515594 16.8188 0.878094C17.2375 3.15622 17.1094 6.96559 13.3375 9.52497C13.2282 9.59997 13.1094 9.67497 12.9844 9.74997V12.3218C12.9844 13.1156 12.5657 13.8531 11.8813 14.2562L9.11566 15.8968C8.88441 16.0343 8.59691 16.0375 8.36253 15.9031C8.12816 15.7687 7.98441 15.5218 7.98441 15.25V11.9C7.54378 12.0531 7.15941 12.1781 6.86878 12.2718C6.51878 12.3843 6.13753 12.2875 5.87503 12.0281H5.87816ZM12.9844 5.24997C13.3159 5.24997 13.6339 5.11827 13.8683 4.88385C14.1027 4.64943 14.2344 4.33149 14.2344 3.99997C14.2344 3.66845 14.1027 3.35051 13.8683 3.11609C13.6339 2.88166 13.3159 2.74997 12.9844 2.74997C12.6529 2.74997 12.3349 2.88166 12.1005 3.11609C11.8661 3.35051 11.7344 3.66845 11.7344 3.99997C11.7344 4.33149 11.8661 4.64943 12.1005 4.88385C12.3349 5.11827 12.6529 5.24997 12.9844 5.24997Z" fill="#1E90FF"/>
</svg>
