<svg width="20" height="18" viewBox="0 0 20 18" fill="none" xmlns="http://www.w3.org/2000/svg">
<path d="M10.625 2.75001C7.55469 2.75001 4.95703 4.76173 4.07422 7.53517C5.38672 6.8711 6.86719 6.50001 8.4375 6.50001H11.875C12.2188 6.50001 12.5 6.78126 12.5 7.12501C12.5 7.46876 12.2188 7.75001 11.875 7.75001H11.25H8.4375C7.78906 7.75001 7.16016 7.82423 6.55469 7.96095C5.54297 8.19142 4.60156 8.60157 3.76562 9.16017C1.49609 10.6719 0 13.2539 0 16.1875V16.8125C0 17.332 0.417969 17.75 0.9375 17.75C1.45703 17.75 1.875 17.332 1.875 16.8125V16.1875C1.875 14.2852 2.68359 12.5742 3.97656 11.375C4.75 14.3242 7.43359 16.5 10.625 16.5H10.6641C15.8242 16.4727 20 11.3867 20 5.1172C20 3.45314 19.707 1.8711 19.1758 0.445323C19.0742 0.175792 18.6797 0.187511 18.543 0.441417C17.8086 1.81642 16.3555 2.75001 14.6875 2.75001H10.625Z" fill="#2ECC71"/>
</svg>
