<svg width="16" height="16" viewBox="0 0 16 16" fill="none" xmlns="http://www.w3.org/2000/svg">
<path d="M9 1C9 0.446875 8.55313 0 8 0C7.44688 0 7 0.446875 7 1V1.35938C7 2.91875 5.11562 3.7 4.0125 2.59687L3.75625 2.34375C3.36562 1.95312 2.73438 1.95312 2.34375 2.34375C1.95312 2.73438 1.95312 3.36875 2.34375 3.75938L2.6 4.01562C3.7 5.11562 2.91875 7 1.35938 7H1C0.446875 7 0 7.44688 0 8C0 8.55313 0.446875 9 1 9H1.35938C2.91875 9 3.7 10.8844 2.59687 11.9875L2.34375 12.2437C1.95312 12.6344 1.95312 13.2688 2.34375 13.6594C2.73438 14.05 3.36875 14.05 3.75938 13.6594L4.01562 13.4031C5.11875 12.3 7.00313 13.0813 7.00313 14.6406V15C7.00313 15.5531 7.45 16 8.00313 16C8.55625 16 9.00313 15.5531 9.00313 15V14.6406C9.00313 13.0813 10.8875 12.3 11.9906 13.4031L12.2469 13.6594C12.6375 14.05 13.2719 14.05 13.6625 13.6594C14.0531 13.2688 14.0531 12.6344 13.6625 12.2437L13.4062 11.9875C12.3031 10.8844 13.0844 9 14.6438 9H15C15.5531 9 16 8.55313 16 8C16 7.44688 15.5531 7 15 7H14.6406C13.0813 7 12.3 5.11562 13.4031 4.0125L13.6594 3.75625C14.05 3.36562 14.05 2.73125 13.6594 2.34063C13.2688 1.95 12.6344 1.95 12.2437 2.34063L11.9875 2.59687C10.8844 3.7 9 2.91875 9 1.35938V1ZM5.5 7C5.5 6.80302 5.5388 6.60796 5.61418 6.42597C5.68956 6.24399 5.80005 6.07863 5.93934 5.93934C6.07863 5.80005 6.24399 5.68956 6.42597 5.61418C6.60796 5.5388 6.80302 5.5 7 5.5C7.19698 5.5 7.39204 5.5388 7.57403 5.61418C7.75601 5.68956 7.92137 5.80005 8.06066 5.93934C8.19995 6.07863 8.31044 6.24399 8.38582 6.42597C8.4612 6.60796 8.5 6.80302 8.5 7C8.5 7.19698 8.4612 7.39204 8.38582 7.57403C8.31044 7.75601 8.19995 7.92137 8.06066 8.06066C7.92137 8.19995 7.75601 8.31044 7.57403 8.38582C7.39204 8.4612 7.19698 8.5 7 8.5C6.80302 8.5 6.60796 8.4612 6.42597 8.38582C6.24399 8.31044 6.07863 8.19995 5.93934 8.06066C5.80005 7.92137 5.68956 7.75601 5.61418 7.57403C5.5388 7.39204 5.5 7.19698 5.5 7ZM9.5 8.75C9.69891 8.75 9.88968 8.82902 10.0303 8.96967C10.171 9.11032 10.25 9.30109 10.25 9.5C10.25 9.69891 10.171 9.88968 10.0303 10.0303C9.88968 10.171 9.69891 10.25 9.5 10.25C9.30109 10.25 9.11032 10.171 8.96967 10.0303C8.82902 9.88968 8.75 9.69891 8.75 9.5C8.75 9.30109 8.82902 9.11032 8.96967 8.96967C9.11032 8.82902 9.30109 8.75 9.5 8.75Z" fill="white"/>
</svg>
