<svg width="20" height="16" viewBox="0 0 20 16" fill="none" xmlns="http://www.w3.org/2000/svg">
<path d="M20 16H0V0H20V16Z" stroke="#E5E7EB"/>
<path d="M18 0C18.5531 0 19 0.446875 19 1V15C19 15.5531 18.5531 16 18 16C17.4469 16 17 15.5531 17 15V1C17 0.446875 17.4469 0 18 0ZM14 3C14.5531 3 15 3.44688 15 4V15C15 15.5531 14.5531 16 14 16C13.4469 16 13 15.5531 13 15V4C13 3.44688 13.4469 3 14 3ZM11 7V15C11 15.5531 10.5531 16 10 16C9.44687 16 9 15.5531 9 15V7C9 6.44688 9.44687 6 10 6C10.5531 6 11 6.44688 11 7ZM6 9C6.55312 9 7 9.44687 7 10V15C7 15.5531 6.55312 16 6 16C5.44688 16 5 15.5531 5 15V10C5 9.44687 5.44688 9 6 9ZM3 13V15C3 15.5531 2.55313 16 2 16C1.44687 16 1 15.5531 1 15V13C1 12.4469 1.44687 12 2 12C2.55313 12 3 12.4469 3 13Z" fill="white"/>
</svg>
