<svg width="16" height="18" viewBox="0 0 16 18" fill="none" xmlns="http://www.w3.org/2000/svg">
<path d="M15.875 18H0.125V0H15.875V18Z" stroke="#E5E7EB"/>
<g clip-path="url(#clip0_9_735)">
<path d="M8 9C9.19347 9 10.3381 8.52589 11.182 7.68198C12.0259 6.83807 12.5 5.69347 12.5 4.5C12.5 3.30653 12.0259 2.16193 11.182 1.31802C10.3381 0.474106 9.19347 0 8 0C6.80653 0 5.66193 0.474106 4.81802 1.31802C3.97411 2.16193 3.5 3.30653 3.5 4.5C3.5 5.69347 3.97411 6.83807 4.81802 7.68198C5.66193 8.52589 6.80653 9 8 9ZM6.39336 10.6875C2.93047 10.6875 0.125 13.493 0.125 16.9559C0.125 17.5324 0.592578 18 1.16914 18H14.8309C15.4074 18 15.875 17.5324 15.875 16.9559C15.875 13.493 13.0695 10.6875 9.60664 10.6875H6.39336Z" fill="white"/>
</g>
<defs>
<clipPath id="clip0_9_735">
<path d="M0.125 0H15.875V18H0.125V0Z" fill="white"/>
</clipPath>
</defs>
</svg>
